<svg xmlns="http://www.w3.org/2000/svg" viewBox="0 0 900 150" preserveAspectRatio="xMidYMax slice">
  <!-- Orbital / science motif -->
  <g fill="none" stroke="#FFFFFF" stroke-width="1.3" opacity="0.12">
    <circle cx="760" cy="42" r="22"/>
    <ellipse cx="760" cy="42" rx="36" ry="13" transform="rotate(-24 760 42)"/>
    <ellipse cx="760" cy="42" rx="36" ry="13" transform="rotate(24 760 42)"/>
  </g>
  <g fill="#FFFFFF" opacity="0.16">
    <circle cx="796" cy="42" r="3"/>
    <circle cx="724" cy="42" r="3"/>
    <circle cx="760" cy="20" r="3"/>
  </g>

  <!-- Ground line -->
  <line x1="0" y1="140" x2="900" y2="140" stroke="#FFFFFF" stroke-width="1" opacity="0.2"/>

  <!-- Research campus skyline (silhouette) -->
  <g opacity="0.20" fill="#FFFFFF">
    <rect x="20" y="88" width="115" height="52"/>
    <rect x="155" y="48" width="85" height="92"/>
    <rect x="260" y="102" width="75" height="38"/>
    <rect x="460" y="68" width="130" height="72"/>
    <rect x="605" y="106" width="85" height="34"/>
    <rect x="705" y="86" width="105" height="54"/>
  </g>

  <!-- Window grids -->
  <g fill="#0B2A4A" opacity="0.4">
    <!-- b1 -->
    <rect x="32" y="98" width="9" height="9"/><rect x="48" y="98" width="9" height="9"/><rect x="64" y="98" width="9" height="9"/><rect x="80" y="98" width="9" height="9"/><rect x="96" y="98" width="9" height="9"/><rect x="112" y="98" width="9" height="9"/>
    <rect x="32" y="115" width="9" height="9"/><rect x="48" y="115" width="9" height="9"/><rect x="64" y="115" width="9" height="9"/><rect x="80" y="115" width="9" height="9"/><rect x="96" y="115" width="9" height="9"/><rect x="112" y="115" width="9" height="9"/>
    <!-- b2 tower -->
    <rect x="168" y="60" width="9" height="9"/><rect x="184" y="60" width="9" height="9"/><rect x="200" y="60" width="9" height="9"/><rect x="216" y="60" width="9" height="9"/>
    <rect x="168" y="78" width="9" height="9"/><rect x="184" y="78" width="9" height="9"/><rect x="200" y="78" width="9" height="9"/><rect x="216" y="78" width="9" height="9"/>
    <rect x="168" y="96" width="9" height="9"/><rect x="184" y="96" width="9" height="9"/><rect x="200" y="96" width="9" height="9"/><rect x="216" y="96" width="9" height="9"/>
    <rect x="168" y="114" width="9" height="9"/><rect x="184" y="114" width="9" height="9"/><rect x="200" y="114" width="9" height="9"/><rect x="216" y="114" width="9" height="9"/>
    <!-- b4 lab block -->
    <rect x="474" y="80" width="10" height="11"/><rect x="494" y="80" width="10" height="11"/><rect x="514" y="80" width="10" height="11"/><rect x="534" y="80" width="10" height="11"/><rect x="554" y="80" width="10" height="11"/><rect x="574" y="80" width="10" height="11"/>
    <rect x="474" y="101" width="10" height="11"/><rect x="494" y="101" width="10" height="11"/><rect x="514" y="101" width="10" height="11"/><rect x="534" y="101" width="10" height="11"/><rect x="554" y="101" width="10" height="11"/><rect x="574" y="101" width="10" height="11"/>
    <rect x="474" y="122" width="10" height="11"/><rect x="494" y="122" width="10" height="11"/><rect x="514" y="122" width="10" height="11"/><rect x="534" y="122" width="10" height="11"/><rect x="554" y="122" width="10" height="11"/><rect x="574" y="122" width="10" height="11"/>
    <!-- b6 -->
    <rect x="717" y="98" width="9" height="10"/><rect x="734" y="98" width="9" height="10"/><rect x="751" y="98" width="9" height="10"/><rect x="768" y="98" width="9" height="10"/><rect x="785" y="98" width="9" height="10"/>
    <rect x="717" y="118" width="9" height="10"/><rect x="734" y="118" width="9" height="10"/><rect x="751" y="118" width="9" height="10"/><rect x="768" y="118" width="9" height="10"/><rect x="785" y="118" width="9" height="10"/>
  </g>

  <!-- Parkland trees between buildings -->
  <g fill="#FFFFFF" opacity="0.18">
    <circle cx="355" cy="118" r="11"/><rect x="352" y="128" width="5" height="12"/>
    <circle cx="390" cy="110" r="14"/><rect x="386" y="123" width="6" height="17"/>
    <circle cx="425" cy="120" r="9"/><rect x="422" y="128" width="5" height="12"/>
    <circle cx="650" cy="120" r="10"/><rect x="647" y="129" width="5" height="11"/>
  </g>
</svg>
